<svg width="52" height="50" viewBox="0 0 52 50" fill="none" xmlns="http://www.w3.org/2000/svg">
<path fill-rule="evenodd" clip-rule="evenodd" d="M25.6323 0C11.4705 0 0 11.4705 0 25.6323C0 36.9747 7.33726 46.5547 17.5261 49.951C18.8077 50.1753 19.2883 49.4063 19.2883 48.7335C19.2883 48.1247 19.2563 46.1062 19.2563 43.9595C12.8162 45.145 11.1501 42.3895 10.6374 40.9477C10.3491 40.2107 9.09948 37.9359 8.01011 37.3271C7.11298 36.8465 5.83136 35.661 7.97807 35.629C9.99661 35.5969 11.4384 37.4873 11.919 38.2563C14.226 42.1332 17.9106 41.0438 19.3845 40.3709C19.6087 38.7048 20.2816 37.5834 21.0185 36.9426C15.3153 36.3018 9.35581 34.091 9.35581 24.2866C9.35581 21.4991 10.3491 19.1922 11.9831 17.398C11.7268 16.7571 10.8297 14.1298 12.2394 10.6054C12.2394 10.6054 14.3862 9.93253 19.2883 13.2327C21.3389 12.656 23.5177 12.3676 25.6964 12.3676C27.8752 12.3676 30.0539 12.656 32.1045 13.2327C37.0067 9.90049 39.1534 10.6054 39.1534 10.6054C40.5632 14.1298 39.6661 16.7571 39.4097 17.398C41.0438 19.1922 42.037 21.4671 42.037 24.2866C42.037 34.1231 36.0455 36.3018 30.3423 36.9426C31.2715 37.7436 32.0725 39.2816 32.0725 41.6846C32.0725 45.1129 32.0404 47.8684 32.0404 48.7335C32.0404 49.4063 32.521 50.2074 33.8027 49.951C38.8911 48.2331 43.3126 44.9627 46.4451 40.6003C49.5775 36.2378 51.2632 31.0029 51.2647 25.6323C51.2647 11.4705 39.7942 0 25.6323 0Z" fill="white"/>
</svg>
