<svg width="50" height="50" viewBox="0 0 50 50" fill="none" xmlns="http://www.w3.org/2000/svg">
<path d="M49.7561 14.7577C49.7281 12.6583 49.3351 10.5798 48.5946 8.61515C47.9525 6.95796 46.9718 5.45293 45.7151 4.19623C44.4584 2.93953 42.9533 1.95878 41.2962 1.31667C39.3567 0.588638 37.3078 0.194981 35.2367 0.152456C32.5701 0.0332633 31.7247 0 24.9557 0C18.1866 0 17.319 1.85872e-07 14.6718 0.152456C12.6016 0.195293 10.5537 0.588946 8.61515 1.31667C6.9577 1.95834 5.45244 2.93892 4.19568 4.19568C2.93892 5.45244 1.95834 6.9577 1.31666 8.61515C0.58718 10.5531 0.194376 12.6015 0.155228 14.6718C0.036035 17.3412 0 18.1866 0 24.9557C0 31.7247 -2.06525e-08 32.5895 0.155228 35.2395C0.196807 37.3129 0.587648 39.3586 1.31666 41.3017C1.95941 42.9586 2.94073 44.4633 4.1979 45.7195C5.45508 46.9757 6.96048 47.9559 8.61792 48.5974C10.5512 49.3547 12.5994 49.7765 14.6746 49.8448C17.3439 49.964 18.1894 50 24.9584 50C31.7275 50 32.5951 50 35.2423 49.8448C37.3133 49.804 39.3624 49.4112 41.3017 48.6833C42.9585 48.0405 44.4631 47.0595 45.7197 45.8029C46.9763 44.5463 47.9573 43.0416 48.6002 41.3849C49.3292 39.4445 49.72 37.3988 49.7616 35.3227C49.8808 32.6561 49.9168 31.8106 49.9168 25.0388C49.9113 18.2698 49.9113 17.4105 49.7561 14.7577V14.7577ZM24.939 37.7564C17.8595 37.7564 12.1244 32.0213 12.1244 24.9418C12.1244 17.8623 17.8595 12.1272 24.939 12.1272C28.3377 12.1272 31.5971 13.4773 34.0003 15.8805C36.4035 18.2837 37.7536 21.5431 37.7536 24.9418C37.7536 28.3404 36.4035 31.5999 34.0003 34.0031C31.5971 36.4063 28.3377 37.7564 24.939 37.7564V37.7564ZM38.2637 14.6413C37.8712 14.6417 37.4824 14.5646 37.1197 14.4146C36.757 14.2646 36.4275 14.0445 36.1499 13.7669C35.8724 13.4894 35.6523 13.1598 35.5022 12.7971C35.3522 12.4344 35.2752 12.0457 35.2755 11.6532C35.2755 11.261 35.3528 10.8726 35.5029 10.5102C35.653 10.1478 35.873 9.81857 36.1503 9.54123C36.4277 9.26388 36.7569 9.04388 37.1193 8.89378C37.4817 8.74368 37.8701 8.66643 38.2623 8.66643C38.6545 8.66643 39.0429 8.74368 39.4053 8.89378C39.7676 9.04388 40.0969 9.26388 40.3742 9.54123C40.6516 9.81857 40.8716 10.1478 41.0217 10.5102C41.1718 10.8726 41.249 11.261 41.249 11.6532C41.249 13.3052 39.913 14.6413 38.2637 14.6413Z" fill="white"/>
<path d="M24.9391 33.2659C29.5364 33.2659 33.2632 29.5391 33.2632 24.9418C33.2632 20.3445 29.5364 16.6177 24.9391 16.6177C20.3418 16.6177 16.615 20.3445 16.615 24.9418C16.615 29.5391 20.3418 33.2659 24.9391 33.2659Z" fill="white"/>
</svg>
