<svg width="50" height="50" viewBox="0 0 50 50" fill="none" xmlns="http://www.w3.org/2000/svg">
<path d="M9.79813 0C4.40993 0 0 4.40983 0 9.79813V40.2035C0 45.5917 4.40983 50 9.79813 50H40.2035C45.5917 50 50 45.5917 50 40.2035V9.79813C50 4.40993 45.5917 0 40.2035 0H9.79813ZM12.2625 8.25101C14.846 8.25101 16.4374 9.94705 16.4865 12.1765C16.4865 14.3567 14.8459 16.1004 12.2125 16.1004H12.1641C9.62971 16.1004 7.99164 14.3568 7.99164 12.1765C7.99164 9.9471 9.67928 8.25101 12.2625 8.25101H12.2625ZM34.5262 18.6711C39.4949 18.6711 43.2195 21.9186 43.2195 28.8973V41.9255H35.6686V29.7708C35.6686 26.7165 34.5758 24.6327 31.8431 24.6327C29.757 24.6327 28.5136 26.0372 27.9676 27.394C27.7682 27.8794 27.7192 28.5573 27.7192 29.2364V41.9255H20.1682C20.1682 41.9255 20.2673 21.3358 20.1682 19.2039H27.7207V22.4215C28.7242 20.8733 30.519 18.671 34.5262 18.671V18.6711ZM8.43704 19.2055H15.988V41.9256H8.43704V19.2055Z" fill="white"/>
</svg>
