<svg width="51" height="50" viewBox="0 0 51 50" fill="none" xmlns="http://www.w3.org/2000/svg">
<path d="M46.3885 11.5622C38.8885 -0.000382218 23.5758 -3.43791 11.7008 3.74965C0.138167 10.9372 -3.61186 26.5623 3.8882 38.1249L4.5132 39.0624L2.01318 48.4375L11.3883 45.9375L12.3258 46.5625C16.3883 48.75 20.7633 50 25.1384 50C29.8259 50 34.5134 48.75 38.576 46.25C50.1385 38.7499 53.5761 23.4373 46.3885 11.5622ZM39.826 35.6249C38.576 37.4999 37.0135 38.7499 34.8259 39.0624C33.5759 39.0624 32.0134 39.6874 25.7634 37.1874C20.4508 34.6874 16.0758 30.6249 12.9508 25.9373C11.0758 23.7498 10.1382 20.9373 9.82574 18.1248C9.82574 15.6247 10.7632 13.4372 12.3258 11.8747C12.9508 11.2497 13.5758 10.9372 14.2008 10.9372H15.7633C16.3883 10.9372 17.0133 10.9372 17.3258 12.1872C17.9508 13.7497 19.5133 17.4998 19.5133 17.8123C19.8258 18.1248 19.8258 18.7498 19.5133 19.0623C19.8258 19.6873 19.5133 20.3123 19.2008 20.6248C18.8883 20.9373 18.5758 21.5623 18.2633 21.8748C17.6383 22.1873 17.3258 22.8123 17.6383 23.4373C18.8883 25.3123 20.4508 27.1873 22.0133 28.7498C23.8883 30.3123 25.7634 31.5624 27.9509 32.4999C28.5759 32.8124 29.2009 32.8124 29.5134 32.1874C29.8259 31.5624 31.3884 29.9998 32.0134 29.3748C32.6384 28.7498 32.9509 28.7498 33.5759 29.0623L38.576 31.5624C39.201 31.8749 39.826 32.1874 40.1385 32.4999C40.451 33.4374 40.451 34.6874 39.826 35.6249Z" fill="white"/>
</svg>
