<svg width="281" height="30" viewBox="0 0 281 30" fill="none" xmlns="http://www.w3.org/2000/svg">
<path d="M21.854 1.622C22.504 1.622 23.063 1.843 23.531 2.285C24.025 2.701 24.272 3.234 24.272 3.884C24.272 4.222 24.194 4.573 24.038 4.937L14.405 27.479C14.171 27.999 13.833 28.389 13.391 28.649C12.975 28.883 12.546 29 12.104 29C11.688 28.974 11.285 28.844 10.895 28.61C10.505 28.35 10.206 27.986 9.998 27.518L0.365 4.898C0.287 4.742 0.235 4.586 0.209 4.43C0.183 4.248 0.17 4.079 0.17 3.923C0.17 3.169 0.443 2.597 0.989 2.207C1.535 1.791 2.055 1.583 2.549 1.583C3.537 1.583 4.252 2.09 4.694 3.104L13.235 23.189L11.87 23.228L19.709 3.104C20.151 2.116 20.866 1.622 21.854 1.622ZM32.3736 26.621C32.3736 27.297 32.1526 27.869 31.7106 28.337C31.2686 28.779 30.7096 29 30.0336 29C29.3576 29 28.7986 28.779 28.3566 28.337C27.9146 27.869 27.6936 27.297 27.6936 26.621V10.514C27.6936 9.838 27.9146 9.279 28.3566 8.837C28.7986 8.369 29.3576 8.135 30.0336 8.135C30.7096 8.135 31.2686 8.369 31.7106 8.837C32.1526 9.279 32.3736 9.838 32.3736 10.514V26.621ZM29.9946 5.6C29.1106 5.6 28.4866 5.457 28.1226 5.171C27.7586 4.885 27.5766 4.378 27.5766 3.65V2.909C27.5766 2.155 27.7716 1.648 28.1616 1.388C28.5776 1.102 29.2016 0.958998 30.0336 0.958998C30.9436 0.958998 31.5806 1.102 31.9446 1.388C32.3086 1.674 32.4906 2.181 32.4906 2.909V3.65C32.4906 4.404 32.2956 4.924 31.9056 5.21C31.5156 5.47 30.8786 5.6 29.9946 5.6ZM46.4654 7.745C47.9474 7.745 49.2344 7.901 50.3264 8.213C51.4444 8.525 52.3024 8.967 52.9004 9.539C53.5244 10.085 53.8364 10.748 53.8364 11.528C53.8364 12.048 53.6804 12.542 53.3684 13.01C53.0564 13.452 52.6014 13.673 52.0034 13.673C51.5874 13.673 51.2364 13.621 50.9504 13.517C50.6904 13.387 50.4564 13.231 50.2484 13.049C50.0404 12.867 49.7934 12.698 49.5074 12.542C49.2474 12.386 48.8444 12.269 48.2984 12.191C47.7784 12.087 47.3884 12.035 47.1284 12.035C45.8024 12.035 44.6714 12.321 43.7354 12.893C42.8254 13.465 42.1234 14.245 41.6294 15.233C41.1354 16.195 40.8884 17.313 40.8884 18.587C40.8884 19.835 41.1354 20.953 41.6294 21.941C42.1494 22.903 42.8514 23.67 43.7354 24.242C44.6454 24.814 45.6854 25.1 46.8554 25.1C47.5054 25.1 48.0644 25.061 48.5324 24.983C49.0004 24.905 49.3904 24.788 49.7024 24.632C50.0664 24.424 50.3914 24.203 50.6774 23.969C50.9634 23.735 51.3924 23.618 51.9644 23.618C52.6404 23.618 53.1604 23.839 53.5244 24.281C53.8884 24.697 54.0704 25.217 54.0704 25.841C54.0704 26.491 53.7064 27.089 52.9784 27.635C52.2504 28.155 51.2884 28.584 50.0924 28.922C48.9224 29.234 47.6484 29.39 46.2704 29.39C44.2164 29.39 42.4354 28.922 40.9274 27.986C39.4194 27.024 38.2494 25.724 37.4174 24.086C36.6114 22.448 36.2084 20.615 36.2084 18.587C36.2084 16.455 36.6374 14.583 37.4954 12.971C38.3794 11.333 39.5884 10.059 41.1224 9.149C42.6824 8.213 44.4634 7.745 46.4654 7.745ZM57.6792 8.525H66.9222C67.5462 8.525 68.0662 8.733 68.4822 9.149C68.8982 9.565 69.1062 10.085 69.1062 10.709C69.1062 11.307 68.8982 11.814 68.4822 12.23C68.0662 12.62 67.5462 12.815 66.9222 12.815H57.6792C57.0552 12.815 56.5352 12.607 56.1192 12.191C55.7032 11.775 55.4952 11.255 55.4952 10.631C55.4952 10.033 55.7032 9.539 56.1192 9.149C56.5352 8.733 57.0552 8.525 57.6792 8.525ZM61.8522 3.65C62.5282 3.65 63.0742 3.884 63.4902 4.352C63.9322 4.794 64.1532 5.353 64.1532 6.029V23.384C64.1532 23.748 64.2182 24.047 64.3482 24.281C64.5042 24.515 64.6992 24.684 64.9332 24.788C65.1932 24.892 65.4662 24.944 65.7522 24.944C66.0642 24.944 66.3502 24.892 66.6102 24.788C66.8702 24.658 67.1692 24.593 67.5072 24.593C67.8712 24.593 68.1962 24.762 68.4822 25.1C68.7942 25.438 68.9502 25.906 68.9502 26.504C68.9502 27.232 68.5472 27.83 67.7412 28.298C66.9612 28.766 66.1162 29 65.2062 29C64.6602 29 64.0492 28.961 63.3732 28.883C62.7232 28.779 62.0992 28.558 61.5012 28.22C60.9292 27.856 60.4482 27.31 60.0582 26.582C59.6682 25.854 59.4732 24.853 59.4732 23.579V6.029C59.4732 5.353 59.6942 4.794 60.1362 4.352C60.6042 3.884 61.1762 3.65 61.8522 3.65ZM93.4537 18.587C93.4537 20.719 92.9727 22.604 92.0107 24.242C91.0747 25.854 89.8007 27.115 88.1887 28.025C86.6027 28.935 84.8217 29.39 82.8457 29.39C80.8697 29.39 79.0757 28.935 77.4637 28.025C75.8777 27.115 74.6037 25.854 73.6417 24.242C72.7057 22.604 72.2377 20.719 72.2377 18.587C72.2377 16.455 72.7057 14.583 73.6417 12.971C74.6037 11.333 75.8777 10.059 77.4637 9.149C79.0757 8.213 80.8697 7.745 82.8457 7.745C84.8217 7.745 86.6027 8.213 88.1887 9.149C89.8007 10.059 91.0747 11.333 92.0107 12.971C92.9727 14.583 93.4537 16.455 93.4537 18.587ZM88.7737 18.587C88.7737 17.261 88.5007 16.117 87.9547 15.155C87.4347 14.167 86.7197 13.4 85.8097 12.854C84.9257 12.308 83.9377 12.035 82.8457 12.035C81.7537 12.035 80.7527 12.308 79.8427 12.854C78.9587 13.4 78.2437 14.167 77.6977 15.155C77.1777 16.117 76.9177 17.261 76.9177 18.587C76.9177 19.887 77.1777 21.031 77.6977 22.019C78.2437 22.981 78.9587 23.735 79.8427 24.281C80.7527 24.827 81.7537 25.1 82.8457 25.1C83.9377 25.1 84.9257 24.827 85.8097 24.281C86.7197 23.735 87.4347 22.981 87.9547 22.019C88.5007 21.031 88.7737 19.887 88.7737 18.587ZM99.8896 29C99.2136 29 98.6546 28.779 98.2126 28.337C97.7706 27.869 97.5496 27.297 97.5496 26.621V10.514C97.5496 9.838 97.7706 9.279 98.2126 8.837C98.6546 8.369 99.2136 8.135 99.8896 8.135C100.566 8.135 101.125 8.369 101.567 8.837C102.009 9.279 102.23 9.838 102.23 10.514V14.18L101.957 11.567C102.243 10.943 102.607 10.397 103.049 9.929C103.517 9.435 104.037 9.032 104.609 8.72C105.181 8.382 105.792 8.135 106.442 7.979C107.092 7.823 107.742 7.745 108.392 7.745C109.172 7.745 109.822 7.966 110.342 8.408C110.888 8.85 111.161 9.37 111.161 9.968C111.161 10.826 110.94 11.45 110.498 11.84C110.056 12.204 109.575 12.386 109.055 12.386C108.561 12.386 108.106 12.295 107.69 12.113C107.3 11.931 106.845 11.84 106.325 11.84C105.857 11.84 105.376 11.957 104.882 12.191C104.414 12.399 103.972 12.737 103.556 13.205C103.166 13.673 102.841 14.258 102.581 14.96C102.347 15.636 102.23 16.442 102.23 17.378V26.621C102.23 27.297 102.009 27.869 101.567 28.337C101.125 28.779 100.566 29 99.8896 29ZM128.159 1.7H141.224C141.9 1.7 142.459 1.921 142.901 2.363C143.369 2.779 143.603 3.325 143.603 4.001C143.603 4.651 143.369 5.184 142.901 5.6C142.459 5.99 141.9 6.185 141.224 6.185H130.304L130.655 5.522V13.127L130.343 12.815H139.469C140.145 12.815 140.704 13.036 141.146 13.478C141.614 13.894 141.848 14.44 141.848 15.116C141.848 15.766 141.614 16.299 141.146 16.715C140.704 17.105 140.145 17.3 139.469 17.3H130.46L130.655 16.988V24.866L130.343 24.515H141.224C141.9 24.515 142.459 24.749 142.901 25.217C143.369 25.659 143.603 26.179 143.603 26.777C143.603 27.427 143.369 27.96 142.901 28.376C142.459 28.792 141.9 29 141.224 29H128.159C127.483 29 126.911 28.779 126.443 28.337C126.001 27.869 125.78 27.297 125.78 26.621V4.079C125.78 3.403 126.001 2.844 126.443 2.402C126.911 1.934 127.483 1.7 128.159 1.7ZM164.6 0.14C165.276 0.14 165.835 0.360999 166.277 0.802998C166.719 1.245 166.94 1.817 166.94 2.519V26.621C166.94 27.297 166.719 27.869 166.277 28.337C165.835 28.779 165.276 29 164.6 29C163.924 29 163.365 28.779 162.923 28.337C162.481 27.869 162.26 27.297 162.26 26.621V24.71L163.118 25.061C163.118 25.399 162.936 25.815 162.572 26.309C162.208 26.777 161.714 27.245 161.09 27.713C160.466 28.181 159.725 28.584 158.867 28.922C158.035 29.234 157.125 29.39 156.137 29.39C154.343 29.39 152.718 28.935 151.262 28.025C149.806 27.089 148.649 25.815 147.791 24.203C146.959 22.565 146.543 20.693 146.543 18.587C146.543 16.455 146.959 14.583 147.791 12.971C148.649 11.333 149.793 10.059 151.223 9.149C152.653 8.213 154.239 7.745 155.981 7.745C157.099 7.745 158.126 7.914 159.062 8.252C159.998 8.59 160.804 9.019 161.48 9.539C162.182 10.059 162.715 10.592 163.079 11.138C163.469 11.658 163.664 12.1 163.664 12.464L162.26 12.971V2.519C162.26 1.843 162.481 1.284 162.923 0.841998C163.365 0.373999 163.924 0.14 164.6 0.14ZM156.722 25.1C157.866 25.1 158.867 24.814 159.725 24.242C160.583 23.67 161.246 22.89 161.714 21.902C162.208 20.914 162.455 19.809 162.455 18.587C162.455 17.339 162.208 16.221 161.714 15.233C161.246 14.245 160.583 13.465 159.725 12.893C158.867 12.321 157.866 12.035 156.722 12.035C155.604 12.035 154.616 12.321 153.758 12.893C152.9 13.465 152.224 14.245 151.73 15.233C151.262 16.221 151.028 17.339 151.028 18.587C151.028 19.809 151.262 20.914 151.73 21.902C152.224 22.89 152.9 23.67 153.758 24.242C154.616 24.814 155.604 25.1 156.722 25.1ZM188.1 8.135C188.776 8.135 189.335 8.369 189.777 8.837C190.219 9.279 190.44 9.838 190.44 10.514V20.42C190.44 23.176 189.673 25.36 188.139 26.972C186.605 28.584 184.395 29.39 181.509 29.39C178.623 29.39 176.413 28.584 174.879 26.972C173.371 25.36 172.617 23.176 172.617 20.42V10.514C172.617 9.838 172.838 9.279 173.28 8.837C173.722 8.369 174.281 8.135 174.957 8.135C175.633 8.135 176.192 8.369 176.634 8.837C177.076 9.279 177.297 9.838 177.297 10.514V20.42C177.297 22.006 177.648 23.189 178.35 23.969C179.052 24.723 180.105 25.1 181.509 25.1C182.939 25.1 184.005 24.723 184.707 23.969C185.409 23.189 185.76 22.006 185.76 20.42V10.514C185.76 9.838 185.981 9.279 186.423 8.837C186.865 8.369 187.424 8.135 188.1 8.135ZM212.589 7.745C213.265 7.745 213.824 7.966 214.266 8.408C214.708 8.85 214.929 9.422 214.929 10.124V26.621C214.929 27.297 214.708 27.869 214.266 28.337C213.824 28.779 213.265 29 212.589 29C211.913 29 211.354 28.779 210.912 28.337C210.47 27.869 210.249 27.297 210.249 26.621V24.71L211.107 25.061C211.107 25.399 210.925 25.815 210.561 26.309C210.197 26.777 209.703 27.245 209.079 27.713C208.455 28.181 207.714 28.584 206.856 28.922C206.024 29.234 205.114 29.39 204.126 29.39C202.332 29.39 200.707 28.935 199.251 28.025C197.795 27.089 196.638 25.815 195.78 24.203C194.948 22.565 194.532 20.693 194.532 18.587C194.532 16.455 194.948 14.583 195.78 12.971C196.638 11.333 197.782 10.059 199.212 9.149C200.642 8.213 202.228 7.745 203.97 7.745C205.088 7.745 206.115 7.914 207.051 8.252C207.987 8.59 208.793 9.019 209.469 9.539C210.171 10.059 210.704 10.592 211.068 11.138C211.458 11.658 211.653 12.1 211.653 12.464L210.249 12.971V10.124C210.249 9.448 210.47 8.889 210.912 8.447C211.354 7.979 211.913 7.745 212.589 7.745ZM204.711 25.1C205.855 25.1 206.856 24.814 207.714 24.242C208.572 23.67 209.235 22.89 209.703 21.902C210.197 20.914 210.444 19.809 210.444 18.587C210.444 17.339 210.197 16.221 209.703 15.233C209.235 14.245 208.572 13.465 207.714 12.893C206.856 12.321 205.855 12.035 204.711 12.035C203.593 12.035 202.605 12.321 201.747 12.893C200.889 13.465 200.213 14.245 199.719 15.233C199.251 16.221 199.017 17.339 199.017 18.587C199.017 19.809 199.251 20.914 199.719 21.902C200.213 22.89 200.889 23.67 201.747 24.242C202.605 24.814 203.593 25.1 204.711 25.1ZM222.336 29C221.66 29 221.101 28.779 220.659 28.337C220.217 27.869 219.996 27.297 219.996 26.621V10.514C219.996 9.838 220.217 9.279 220.659 8.837C221.101 8.369 221.66 8.135 222.336 8.135C223.012 8.135 223.571 8.369 224.013 8.837C224.455 9.279 224.676 9.838 224.676 10.514V14.18L224.403 11.567C224.689 10.943 225.053 10.397 225.495 9.929C225.963 9.435 226.483 9.032 227.055 8.72C227.627 8.382 228.238 8.135 228.888 7.979C229.538 7.823 230.188 7.745 230.838 7.745C231.618 7.745 232.268 7.966 232.788 8.408C233.334 8.85 233.607 9.37 233.607 9.968C233.607 10.826 233.386 11.45 232.944 11.84C232.502 12.204 232.021 12.386 231.501 12.386C231.007 12.386 230.552 12.295 230.136 12.113C229.746 11.931 229.291 11.84 228.771 11.84C228.303 11.84 227.822 11.957 227.328 12.191C226.86 12.399 226.418 12.737 226.002 13.205C225.612 13.673 225.287 14.258 225.027 14.96C224.793 15.636 224.676 16.442 224.676 17.378V26.621C224.676 27.297 224.455 27.869 224.013 28.337C223.571 28.779 223.012 29 222.336 29ZM253.112 0.14C253.788 0.14 254.347 0.360999 254.789 0.802998C255.231 1.245 255.452 1.817 255.452 2.519V26.621C255.452 27.297 255.231 27.869 254.789 28.337C254.347 28.779 253.788 29 253.112 29C252.436 29 251.877 28.779 251.435 28.337C250.993 27.869 250.772 27.297 250.772 26.621V24.71L251.63 25.061C251.63 25.399 251.448 25.815 251.084 26.309C250.72 26.777 250.226 27.245 249.602 27.713C248.978 28.181 248.237 28.584 247.379 28.922C246.547 29.234 245.637 29.39 244.649 29.39C242.855 29.39 241.23 28.935 239.774 28.025C238.318 27.089 237.161 25.815 236.303 24.203C235.471 22.565 235.055 20.693 235.055 18.587C235.055 16.455 235.471 14.583 236.303 12.971C237.161 11.333 238.305 10.059 239.735 9.149C241.165 8.213 242.751 7.745 244.493 7.745C245.611 7.745 246.638 7.914 247.574 8.252C248.51 8.59 249.316 9.019 249.992 9.539C250.694 10.059 251.227 10.592 251.591 11.138C251.981 11.658 252.176 12.1 252.176 12.464L250.772 12.971V2.519C250.772 1.843 250.993 1.284 251.435 0.841998C251.877 0.373999 252.436 0.14 253.112 0.14ZM245.234 25.1C246.378 25.1 247.379 24.814 248.237 24.242C249.095 23.67 249.758 22.89 250.226 21.902C250.72 20.914 250.967 19.809 250.967 18.587C250.967 17.339 250.72 16.221 250.226 15.233C249.758 14.245 249.095 13.465 248.237 12.893C247.379 12.321 246.378 12.035 245.234 12.035C244.116 12.035 243.128 12.321 242.27 12.893C241.412 13.465 240.736 14.245 240.242 15.233C239.774 16.221 239.54 17.339 239.54 18.587C239.54 19.809 239.774 20.914 240.242 21.902C240.736 22.89 241.412 23.67 242.27 24.242C243.128 24.814 244.116 25.1 245.234 25.1ZM280.76 18.587C280.76 20.719 280.279 22.604 279.317 24.242C278.381 25.854 277.107 27.115 275.495 28.025C273.909 28.935 272.128 29.39 270.152 29.39C268.176 29.39 266.382 28.935 264.77 28.025C263.184 27.115 261.91 25.854 260.948 24.242C260.012 22.604 259.544 20.719 259.544 18.587C259.544 16.455 260.012 14.583 260.948 12.971C261.91 11.333 263.184 10.059 264.77 9.149C266.382 8.213 268.176 7.745 270.152 7.745C272.128 7.745 273.909 8.213 275.495 9.149C277.107 10.059 278.381 11.333 279.317 12.971C280.279 14.583 280.76 16.455 280.76 18.587ZM276.08 18.587C276.08 17.261 275.807 16.117 275.261 15.155C274.741 14.167 274.026 13.4 273.116 12.854C272.232 12.308 271.244 12.035 270.152 12.035C269.06 12.035 268.059 12.308 267.149 12.854C266.265 13.4 265.55 14.167 265.004 15.155C264.484 16.117 264.224 17.261 264.224 18.587C264.224 19.887 264.484 21.031 265.004 22.019C265.55 22.981 266.265 23.735 267.149 24.281C268.059 24.827 269.06 25.1 270.152 25.1C271.244 25.1 272.232 24.827 273.116 24.281C274.026 23.735 274.741 22.981 275.261 22.019C275.807 21.031 276.08 19.887 276.08 18.587Z" fill="url(#paint0_linear_101_117)"/>
<defs>
<linearGradient id="paint0_linear_101_117" x1="126" y1="14" x2="283" y2="14" gradientUnits="userSpaceOnUse">
<stop stop-color="#893FF1"/>
<stop offset="1" stop-color="#5C0396"/>
</linearGradient>
</defs>
</svg>
